<svg xmlns="http://www.w3.org/2000/svg" viewBox="0 0 750 500"><g id="freepik--Car--inject-178"><path d="M523.9,278.6l-.79-2.71s10-10.77,12.91-12.09,20.54,2,21.5,3.55.58,8.35.34,9.55-16,3.88-18.59,4S523.9,278.6,523.9,278.6Z" style="fill:#FFC700"></path><path d="M523.11,275.89l.79,2.71s-6.69,5-6.93,5.33.16,1.74.16,1.74h-6.77v-9.78a16.14,16.14,0,0,0,3.16,1.35C514.5,277.41,523.11,275.89,523.11,275.89Z" style="fill:#FFC700"></path><g style="opacity:0.1"><path d="M523.9,278.6l-.79-2.71s10-10.77,12.91-12.09,20.54,2,21.5,3.55.58,8.35.34,9.55-16,3.88-18.59,4S523.9,278.6,523.9,278.6Z"></path><path d="M523.11,275.89l.79,2.71s-6.69,5-6.93,5.33.16,1.74.16,1.74h-6.77v-9.78a16.14,16.14,0,0,0,3.16,1.35C514.5,277.41,523.11,275.89,523.11,275.89Z"></path></g><path d="M399.07,382.08c-.72,26.15-11.12,58.23-34.28,58.23-2.27,0-33.28.6-35.31-.08C310.81,434,299.75,400,301.85,370c1.63-23.38,9.06-49.56,28.58-52.7,1.31-.21,33.93,0,35.34,0C389.15,317.27,399.84,353.94,399.07,382.08Z" style="fill:#263238"></path><path d="M361.89,382.08c-.72,26.15-11.11,58.23-34.27,58.23S293.86,403.24,296.19,370c1.74-24.94,9.79-52.7,32.41-52.7C352,317.27,362.67,353.94,361.89,382.08Z" style="fill:#37474f"></path><path d="M352.25,381.32c-.59,20.14-8.34,44.84-25.46,44.84S301.92,397.62,303.71,372c1.34-19.2,7.35-40.58,24.07-40.58C345.06,331.42,352.88,359.66,352.25,381.32Z" style="fill:#c7c7c7"></path><path d="M322.3,335.77c.35,8.18,1.59,34.26,3.36,34.26,1.5,0,5.89-24.61,7.44-33.51a13,13,0,0,0-6.05-1.49A15.15,15.15,0,0,0,322.3,335.77Z" style="fill:#263238"></path><path d="M328.87,371.58c.95.71,9.33-11.05,15.43-19.87a37.71,37.71,0,0,0-5.5-10.27C334.85,351.54,327.59,370.62,328.87,371.58Z" style="fill:#263238"></path><path d="M330.46,374.61c.43,1.06,9.44-3.06,17.57-7a81,81,0,0,0-1.84-9.74C338.75,364.74,329.94,373.29,330.46,374.61Z" style="fill:#263238"></path><path d="M331.31,378.28c-.09,1.23,9,3,17.32,4.29,0-.49,0-1,.06-1.44.08-2.62,0-5.34-.15-8.1C340.25,374.74,331.4,376.9,331.31,378.28Z" style="fill:#263238"></path><path d="M346.05,399.64a81.77,81.77,0,0,0,2.09-11.15c-7.94-3.69-17.21-7.66-17.91-6.38S339.11,392.93,346.05,399.64Z" style="fill:#263238"></path><path d="M336.2,418.37a31.26,31.26,0,0,0,7.33-11.23c-5.1-8.72-13.84-23.16-15.19-22.24S334,410.7,336.2,418.37Z" style="fill:#263238"></path><path d="M318.33,420a12.69,12.69,0,0,0,7.61,2.55,13.49,13.49,0,0,0,3.14-.35c-.28-6.84-1.53-35.21-3.4-35.21C324.22,387,319.94,410.73,318.33,420Z" style="fill:#263238"></path><path d="M308.46,403.45a43,43,0,0,0,4.64,10.75c4-10.14,10.34-27.05,9.13-28C321.35,385.58,314.27,395.23,308.46,403.45Z" style="fill:#263238"></path><path d="M305.72,388.49a83.81,83.81,0,0,0,1.27,8.93c6.5-6.14,13.16-12.83,12.7-14C319.32,382.47,312.62,385.28,305.72,388.49Z" style="fill:#263238"></path><path d="M305.4,375.29c-.12,2.76-.12,5.54,0,8.29,6.88-1.45,13.28-3.11,13.37-4.32C318.83,378.2,312.3,376.64,305.4,375.29Z" style="fill:#263238"></path><path d="M305.75,370c6.66,3.16,13.34,6,13.93,4.88s-6.35-8.73-12.46-15.12A91.46,91.46,0,0,0,305.75,370Z" style="fill:#263238"></path><path d="M309.14,352.37s0,0,0,0c4.93,8.52,11.85,20,13.06,19.15s-4.23-22.24-6.63-31.2A33.12,33.12,0,0,0,309.14,352.37Z" style="fill:#263238"></path><path d="M661.34,382.08c-.73,26.15-11.12,58.23-34.28,58.23-2.27,0-33.28.6-35.31-.08C573.08,434,562,400,564.12,370c1.63-23.38,9.06-49.56,28.58-52.7,1.3-.21,33.93,0,35.34,0C651.42,317.27,662.11,353.94,661.34,382.08Z" style="fill:#263238"></path><path d="M624.16,382.08c-.72,26.15-11.11,58.23-34.27,58.23S556.13,403.24,558.46,370c1.74-24.94,9.79-52.7,32.4-52.7C614.25,317.27,624.94,353.94,624.16,382.08Z" style="fill:#37474f"></path><path d="M614.52,381.32c-.59,20.14-8.34,44.84-25.46,44.84S564.19,397.62,566,372c1.34-19.2,7.35-40.58,24.07-40.58C607.33,331.42,615.15,359.66,614.52,381.32Z" style="fill:#c7c7c7"></path><path d="M584.57,335.77c.35,8.18,1.58,34.26,3.36,34.26,1.5,0,5.89-24.61,7.44-33.51a13,13,0,0,0-6-1.49A15.15,15.15,0,0,0,584.57,335.77Z" style="fill:#263238"></path><path d="M591.14,371.58c1,.71,9.33-11.05,15.42-19.87a37.42,37.42,0,0,0-5.49-10.27C597.12,351.54,589.86,370.62,591.14,371.58Z" style="fill:#263238"></path><path d="M592.73,374.61c.42,1.06,9.44-3.06,17.57-7a81,81,0,0,0-1.84-9.74C601,364.74,592.21,373.29,592.73,374.61Z" style="fill:#263238"></path><path d="M593.57,378.28c-.08,1.23,9,3,17.33,4.29,0-.49,0-1,.06-1.44.08-2.62,0-5.34-.15-8.1C602.52,374.74,593.67,376.9,593.57,378.28Z" style="fill:#263238"></path><path d="M608.32,399.64a81.77,81.77,0,0,0,2.09-11.15c-7.94-3.69-17.21-7.66-17.91-6.38S601.38,392.93,608.32,399.64Z" style="fill:#263238"></path><path d="M598.47,418.37a31.26,31.26,0,0,0,7.33-11.23C600.7,398.42,592,384,590.61,384.9S596.25,410.7,598.47,418.37Z" style="fill:#263238"></path><path d="M580.6,420a12.69,12.69,0,0,0,7.61,2.55,13.49,13.49,0,0,0,3.14-.35c-.28-6.84-1.53-35.21-3.4-35.21C586.49,387,582.21,410.73,580.6,420Z" style="fill:#263238"></path><path d="M570.73,403.45a43,43,0,0,0,4.64,10.75c4-10.14,10.34-27.05,9.13-28C583.62,385.58,576.54,395.23,570.73,403.45Z" style="fill:#263238"></path><path d="M568,388.49a83.81,83.81,0,0,0,1.27,8.93c6.5-6.14,13.16-12.83,12.69-14C581.59,382.47,574.89,385.28,568,388.49Z" style="fill:#263238"></path><path d="M567.67,375.29c-.12,2.76-.12,5.54,0,8.29,6.88-1.45,13.28-3.11,13.37-4.32C581.1,378.2,574.57,376.64,567.67,375.29Z" style="fill:#263238"></path><path d="M568,370c6.66,3.16,13.34,6,13.92,4.88s-6.34-8.73-12.45-15.12A91.46,91.46,0,0,0,568,370Z" style="fill:#263238"></path><path d="M571.41,352.37h0c4.93,8.52,11.86,20,13.07,19.15s-4.23-22.24-6.63-31.2A33,33,0,0,0,571.41,352.37Z" style="fill:#263238"></path><path d="M160.48,382.08c-.72,26.15-11.11,58.23-34.27,58.23-2.27,0-33.29.6-35.32-.08C72.22,434,61.16,400,63.26,370c1.63-23.38,9.06-49.56,28.58-52.7,1.31-.21,33.93,0,35.34,0C150.56,317.27,161.25,353.94,160.48,382.08Z" style="fill:#263238"></path><path d="M123.3,382.08c-.72,26.15-11.11,58.23-34.27,58.23S55.27,403.24,57.6,370c1.74-24.94,9.79-52.7,32.41-52.7C113.39,317.27,124.08,353.94,123.3,382.08Z" style="fill:#37474f"></path><path d="M113.66,381.32c-.59,20.14-8.34,44.84-25.46,44.84S63.33,397.62,65.12,372c1.34-19.2,7.35-40.58,24.07-40.58C106.47,331.42,114.29,359.66,113.66,381.32Z" style="fill:#c7c7c7"></path><path d="M83.71,335.77C84.07,344,85.3,370,87.07,370c1.5,0,5.89-24.61,7.44-33.51A13,13,0,0,0,88.46,335,15.15,15.15,0,0,0,83.71,335.77Z" style="fill:#263238"></path><path d="M90.28,371.58c1,.71,9.33-11.05,15.43-19.87a38,38,0,0,0-5.49-10.27C96.26,351.54,89,370.62,90.28,371.58Z" style="fill:#263238"></path><path d="M91.87,374.61c.43,1.06,9.44-3.06,17.57-7a81,81,0,0,0-1.84-9.74C100.16,364.74,91.35,373.29,91.87,374.61Z" style="fill:#263238"></path><path d="M92.72,378.28c-.09,1.23,9,3,17.32,4.29,0-.49,0-1,.06-1.44.08-2.62,0-5.34-.15-8.1C101.66,374.74,92.81,376.9,92.72,378.28Z" style="fill:#263238"></path><path d="M107.46,399.64a81.77,81.77,0,0,0,2.09-11.15c-7.94-3.69-17.21-7.66-17.9-6.38S100.52,392.93,107.46,399.64Z" style="fill:#263238"></path><path d="M97.61,418.37a31.26,31.26,0,0,0,7.33-11.23C99.84,398.42,91.1,384,89.75,384.9S95.39,410.7,97.61,418.37Z" style="fill:#263238"></path><path d="M79.74,420a12.69,12.69,0,0,0,7.61,2.55,13.49,13.49,0,0,0,3.14-.35C90.21,415.37,89,387,87.09,387,85.63,387,81.36,410.73,79.74,420Z" style="fill:#263238"></path><path d="M69.87,403.45a43,43,0,0,0,4.64,10.75c4-10.14,10.34-27.05,9.13-28C82.76,385.58,75.68,395.23,69.87,403.45Z" style="fill:#263238"></path><path d="M67.13,388.49a83.81,83.81,0,0,0,1.27,8.93c6.5-6.14,13.17-12.83,12.7-14C80.73,382.47,74,385.28,67.13,388.49Z" style="fill:#263238"></path><path d="M66.81,375.29c-.12,2.76-.12,5.54,0,8.29,6.88-1.45,13.29-3.11,13.37-4.32C80.24,378.2,73.71,376.64,66.81,375.29Z" style="fill:#263238"></path><path d="M67.16,370c6.66,3.16,13.34,6,13.93,4.88s-6.35-8.73-12.46-15.12A93.83,93.83,0,0,0,67.16,370Z" style="fill:#263238"></path><path d="M70.55,352.37s0,0,0,0c4.93,8.52,11.85,20,13.06,19.15s-4.23-22.24-6.63-31.2A33.12,33.12,0,0,0,70.55,352.37Z" style="fill:#263238"></path><path d="M295.87,421.05H139.7s-14.27-23.24-15.08-26.91,2.72-77.68-35.51-77.68c-33.3,0-31.83,74.29-31.83,74.29l-4.07-6.25-.92-10.85,2.6-6.43s-4.89-45.56-2.6-51.83,22.63-32.57,24-33.95,23.85-5.2,25.38-6.57,64.37-53.22,92.36-59.33,89-11,128.26-11,128.93,10.6,136.27,13.05,74.62,65.65,74.62,65.65,71.71,9.22,81.35,11.36,46.18,26.46,47.71,29.51,6.27,37.16,6.27,37.16,3.67,8.41,3.82,10.4-4.44,34.4-5.05,36.09-7.34,9.32-8.87,9.93-256.19,4-259.31,3.37-17.81-4.89-20.26-6.53-7.16-97.25-51-97.25C289.76,317.27,292.82,390.32,295.87,421.05Z" style="fill:#FFC700"></path><path d="M509,420.07c70.33-.88,148.63-2.06,149.47-2.39,1.53-.6,8.26-8.26,8.87-9.93s5.2-34.1,5-36.09-3.81-10.41-3.81-10.41-4.74-34.1-6.27-37.15-38.07-27.37-47.71-29.5-81.35-11.37-81.35-11.37,65,14.53,68.31,17.43S630,331,632.89,335s3.35,34.85,4.27,37.39,7.05,18.46,7.65,21.21-2.13,13.77-3,14.67S514.85,419.6,509,420.07Z" style="opacity:0.1"></path><path d="M295.88,421.05c-2.79-27.9-5.55-90.66,22.46-102-14.31,2.59-34.28,26-35.11,87.31L139.71,421.05Z" style="opacity:0.1"></path><g style="opacity:0.6000000000000001"><path d="M143.37,381.44A173.62,173.62,0,0,0,133.93,338a101.07,101.07,0,0,0-4.41-10.27,72,72,0,0,0-5.67-9.66,48.32,48.32,0,0,0-7.34-8.5,43,43,0,0,0-4.4-3.55,35.77,35.77,0,0,0-5-2.73,28.78,28.78,0,0,0-11-2.6A26.47,26.47,0,0,0,85,302.41c-7.16,2.76-12.6,8.58-16.45,14.92A82,82,0,0,0,60,337.91a128.51,128.51,0,0,0-4,21.89,129.18,129.18,0,0,1,4.65-21.7,81.86,81.86,0,0,1,8.83-20.21c3.91-6.14,9.17-11.74,16-14.31A25.22,25.22,0,0,1,96.09,302a27.4,27.4,0,0,1,10.49,2.54,34,34,0,0,1,4.78,2.59,42.15,42.15,0,0,1,4.27,3.4,47.27,47.27,0,0,1,7.19,8.26c4.28,6,7.39,12.73,10.12,19.57a162.51,162.51,0,0,1,6.46,21.2A194.65,194.65,0,0,1,143.37,381.44Z" style="fill:#fff"></path><path d="M380.22,381.44a174.86,174.86,0,0,0-9.1-42.47,92.48,92.48,0,0,0-9.55-19.62,58.89,58.89,0,0,0-6.89-8.55,40.93,40.93,0,0,0-8.82-6.63,33.88,33.88,0,0,0-10.55-3.31,33,33,0,0,0-11,.64c-7.25,1.71-13.49,6.37-18.06,12.05a69.92,69.92,0,0,0-10.59,19,109.44,109.44,0,0,0-5.58,21,109.06,109.06,0,0,1,6.21-20.76,69.12,69.12,0,0,1,10.78-18.61c4.59-5.45,10.58-9.93,17.54-11.51a31.49,31.49,0,0,1,10.56-.55,32.49,32.49,0,0,1,10.07,3.22,39.69,39.69,0,0,1,8.53,6.35,58.2,58.2,0,0,1,6.78,8.3,97,97,0,0,1,9.6,19.3,163.83,163.83,0,0,1,6.22,20.74A193.14,193.14,0,0,1,380.22,381.44Z" style="fill:#fff"></path><path d="M293.73,327.42c-10-2.88-19.91-5.85-29.9-8.65h0L208,313.44l-55.83-5,.07,0L134,302.19,115.64,296l18.19,6.58L152.05,309h.06l55.8,5.28,55.83,4.94h-.05C273.68,322.06,283.72,324.7,293.73,327.42Z" style="fill:#fff"></path><path d="M525.23,283.25l30.3,12.93L585.86,309l-.13-.12,12.09,22.68.29-.49c-29.25.25-58.5.36-87.75.76l.21.06-34.86-20.5,0,0,0,0L432.2,298.45l-43.48-12.78,43.34,13.24L475.45,312l-.08,0,34.78,20.64.1.06h.11c29.26-.17,58.51-.62,87.76-.93h.55l-.26-.49-12.19-22.63-.05-.09-.09,0-30.4-12.68Z" style="fill:#fff"></path></g><g style="opacity:0.30000000000000004"><path d="M527.48,283.23l61.15,14.52,7.62,1.87c1.28.31,2.53.66,3.79,1l.87.29a2.73,2.73,0,0,1,.43.16l.33.29A12,12,0,0,1,603,302.7c3.41,3.92,6.53,8.15,9.73,12.28q9.48,12.52,18.8,25.18c-6-8.62-12-17.18-18.23-25.6-3.13-4.22-6.25-8.41-9.68-12.42a13.1,13.1,0,0,0-1.43-1.47l-.43-.35a4,4,0,0,0-.48-.19l-1-.33c-1.27-.35-2.54-.72-3.81-1l-7.63-1.91q-15.3-3.62-30.63-7T527.48,283.23Z"></path><path d="M330.2,285.67l18.6,5.87,18.63,5.76L404.64,309c6.2,1.94,12.4,3.88,18.54,6a57.32,57.32,0,0,1,8.83,4l8.69,4.41,17.39,8.83,17.45,8.69-17.25-9.1-17.32-9-8.66-4.48a56.69,56.69,0,0,0-8.87-4.11c-6.15-2.16-12.34-4.15-18.53-6.13l-37.3-11.41-18.68-5.61Z"></path><path d="M283.23,401.59l-18-.38-18-.26-35.91-.55-35.91-.34-18-.27-4.48-.08-2.24-.08c-.36,0-.78,0-1.08-.08s-.57-.39-.83-.62c-2-2.21-3.76-4.65-5.54-7.05,1.72,2.45,3.42,4.92,5.37,7.21.27.24.47.63.9.7a8.31,8.31,0,0,0,1.16.12L153,400l4.49.2,18,.44,35.91.64,35.92.24,17.95.1Z"></path><path d="M157.34,281.31Q154.51,295,151.8,308.7v.12l3.58,21.69,3.68,21.68q3.69,21.66,7.76,43.28c-2.21-14.49-4.49-29-6.93-43.42l-3.65-21.68-3.76-21.66v.12Q155,295.09,157.34,281.31Z"></path><path d="M256.42,283.12q3.36,18,6.95,36V319q.22,19.61.61,39.2l.44,19.6.58,19.6,0-19.61-.17-19.6q-.21-19.6-.62-39.2v-.08Q260.4,301,256.42,283.12Z"></path><path d="M122.14,272.32c-1.29,3.89-2.46,7.81-3.62,11.73s-2.27,7.85-3.29,11.81l0,.11,0,.09c.64,2.89,1.25,5.77,2,8.64s1.37,5.74,2.13,8.6q-.69-4.38-1.52-8.73c-.52-2.9-1.13-5.79-1.71-8.69v.21c1.15-3.93,2.14-7.89,3.21-11.84S121.27,276.32,122.14,272.32Z"></path><polygon points="286.5 353.6 267.96 352.19 249.41 350.92 212.31 348.38 175.2 346.16 156.64 345.05 138.07 344.09 156.61 345.5 175.16 346.77 212.25 349.3 249.37 351.52 267.93 352.63 286.5 353.6"></polygon><path d="M180.73,286.75c-.36,1.51-.66,3-1,4.55l.25-.19c-2.9-.34-5.8-.7-8.7-.95s-5.81-.57-8.72-.77l.38.51.87-4.2-.4.29c3.22.19,6.44.38,9.67.45-3.2-.48-6.4-.83-9.6-1.19l-.32,0-.08.33-1,4.18-.1.46.48.05c2.9.3,5.81.54,8.72.76s5.82.4,8.73.57l.22,0,0-.21C180.37,289.83,180.58,288.29,180.73,286.75Z"></path><path d="M652.46,348.84c1.11,6,2.57,12,4,17.92L657,369l.14.55.07.28c0,.13,0,0,.11,0,0,.33-.05.76-.07,1.13-.13,1.56-.28,3.09-.36,4.66-.21,3.11-.39,6.21-.45,9.28.45-3,.79-6,1.1-9,.17-1.48.28-3,.42-4.49l.11-1.15a1.37,1.37,0,0,0,0-.59l-.06-.28-.13-.56-.53-2.24C655.81,360.62,654.31,354.69,652.46,348.84Z"></path><path d="M424.32,348.84c-1.23,3-2.33,6.12-3.43,9.2s-2.14,6.18-3.1,9.3l0,.08v.06c0,2.33,0,4.65.12,7s.16,4.66.31,7q.23-3.48.31-7c.09-2.33.1-4.65.12-7l0,.13c1.08-3.08,2-6.22,3-9.33S423.51,352,424.32,348.84Z"></path><path d="M672.26,373,655,390.21l.09,0-61.79,2.06c-10.3.33-20.6.76-30.9,1l-30.92-.07-123.66.31h0l-25.11-6.08,25,6.38h0l123.68.3L562.4,394c10.3-.29,20.59-.77,30.89-1.14l61.79-2.43h.06l0,0Z"></path></g><path d="M240.62,280.78c-2,2.09-82.57-2.65-84.4-2.86s-32.62-6.11-34-7.54,48.93-37.72,53.21-39.55,50.92-4.89,57.34-2.3C237.74,230.57,243,278.38,240.62,280.78Z" style="fill:#263238"></path><path d="M235.39,278.57c-1.86,1.9-75.44-2.42-77.12-2.61s-29.8-5.59-31.11-6.89,44.71-34.46,48.62-36.14,46.52-4.47,52.39-2.1C232.76,232.69,237.53,276.38,235.39,278.57Z" style="fill:#37474f"></path><g style="opacity:0.1"><path d="M184.27,231.62l51,31.35c-.87-9.21-2.51-20.27-4.37-26.74L220.7,230A332,332,0,0,0,184.27,231.62Z" style="fill:#fff"></path><path d="M144.38,254.94l36.28,22.31c6.63.35,14,.72,21.21,1L153.29,248.4C150.29,250.56,147.26,252.78,144.38,254.94Z" style="fill:#fff"></path><path d="M129.47,266.56l8.91,5.47c2.13.47,4.37.94,6.57,1.39L131.29,265C130.61,265.59,130,266.1,129.47,266.56Z" style="fill:#fff"></path></g><path d="M179.26,232.21c-1.44.23-18.09,43.2-17.78,44s-3.28.14-3-.06,18.22-41.67,17.7-43.42C175.93,231.86,179.26,232.21,179.26,232.21Z" style="fill:#263238"></path><path d="M527.48,283.23c-2,0-192.31,2.44-197.28,2.44s-73.62-3.31-74.46-3.77-7.57-50.31-5.54-54.37c.56-1.11,92.77-5.88,104.09-5.88s104.08,4,109,4.9S530.86,283.18,527.48,283.23Z" style="fill:#263238"></path><path d="M521.56,280.82c-1.92,0-180.71,2.3-185.38,2.3s-71.09-3.11-71.88-3.54S259,235.06,261,231.24c.52-1.05,89.07-5.52,99.71-5.52s97.8,3.8,102.4,4.6S524.73,280.78,521.56,280.82Z" style="fill:#37474f"></path><path d="M428.36,228.36l85.46,52.56-38.31.48-89.2-54.86C399.12,227.05,414.62,227.73,428.36,228.36Zm-117.68-.46,88.58,54.47,19.16-.24L328.75,227ZM262.08,262c.47,5,1,9.63,1.39,12.87l8.59,5.28c5.42.32,13.14.72,21.37,1.12Zm17.65-32.33,86.38,53.11,4.23,0-86.69-53.31ZM441.9,229l74.24,45.65c-2.36-2.26-5.35-5-8.68-8l-60.84-37.41h0C445.12,229.18,443.54,229.09,441.9,229Z" style="fill:#fff;opacity:0.1"></path><path d="M452.25,333c2.66,2.66-2,19.17-6.12,20.39s-32-2.65-35.06-3.47-34.46-10.19-37.11-13-5.1-26.3-2.24-27.94,49.95,10.61,55,12S450,330.73,452.25,333Z" style="fill:#fff"></path><path d="M664.54,341.44c-1.09,2.13-8.72,10-10.25,11.09s-10.7,2.61-11.77,2-6.88-13.3-6.73-15.44,12.23-25.38,14.37-24.93,13.77,7.65,14.38,9.94S665.72,339.14,664.54,341.44Z" style="fill:#fff"></path><path d="M663.85,340.7c.11,1.53-3.94,6.26-4.43,6.84a42.18,42.18,0,0,0,5.11-6.1c1.2-2.3.63-15.05,0-17.33s-12.23-9.49-14.36-9.95c2.33,1,11.58,8.61,12.08,10.49S663.74,339.07,663.85,340.7Z" style="fill:#dbdbdb"></path><path d="M634.35,339.45c-2.79-1-60.07-2.69-71.32-2.69s-85.26,1.74-90.33,3.49,6.34,31.85,10.78,34.07,75.75,7.92,80.66,7.92,60.58-7.86,63.91-10.08S638.94,341,634.35,339.45Z" style="fill:#455a64"></path><path d="M631.51,342.2c-2.69-.88-58-2.47-68.81-2.47s-82.26,1.6-87.16,3.2,6.12,27.17,10.4,29.2,73.09,7.27,77.83,7.27,58.46-7.21,61.67-9.24S636,343.65,631.51,342.2Z" style="fill:#263238"></path><rect x="473.31" y="342.63" width="160.59" height="1.49" style="fill:#455a64"></rect><rect x="473.31" y="347.58" width="160.59" height="1.49" style="fill:#455a64"></rect><rect x="473.31" y="352.53" width="160.59" height="1.49" style="fill:#455a64"></rect><rect x="475.2" y="357.48" width="156.81" height="1.49" style="fill:#455a64"></rect><rect x="477.12" y="362.43" width="152.98" height="1.49" style="fill:#455a64"></rect><rect x="479.48" y="367.39" width="148.25" height="1.49" style="fill:#455a64"></rect><rect x="485.23" y="372.34" width="131.37" height="1.49" style="fill:#455a64"></rect><rect x="520.63" y="377.29" width="65.96" height="1.49" style="fill:#455a64"></rect><path d="M477.88,358.82c.22.59.44,1.18.68,1.76l152.27-2.75c.17-.59.3-1.2.43-1.81Z" style="fill:#FFC700"></path><path d="M624.17,406.37H480.28c-3,0,12.55-9.33,15-9.48s115.29,0,117.59,0S626.77,406.37,624.17,406.37Z" style="fill:#263238"></path><path d="M660.61,400.21c-1.55.25-17.53.56-20.18,0s-8.77-14.54-8.36-16.63,12.29-9.17,13.81-9.63,12.31-1.07,13.46,0S662.05,400,660.61,400.21Z" style="fill:#455a64"></path><path d="M453.68,381.44c1.91,2.48-11.22,17.39-16.21,19.22s-35.63,1.89-36.7,1.58-1.17-15.65-.56-18,6.32-10.91,7.59-11.67,28.7,1.58,32.42,2.54S452.81,380.32,453.68,381.44Z" style="fill:#455a64"></path><path d="M228.41,276.05l.79-2.71s-10-10.77-12.92-12.09-20.54,2-21.5,3.55-.58,8.35-.34,9.55,16,3.88,18.6,4S228.41,276.05,228.41,276.05Z" style="fill:#FFC700"></path><path d="M229.2,273.34l-.79,2.71s6.68,5,6.93,5.33-.16,1.74-.16,1.74H242v-9.78a16,16,0,0,1-3.17,1.35C237.81,274.85,229.2,273.34,229.2,273.34Z" style="fill:#FFC700"></path></g></svg>
